<svg width="48" height="48" viewBox="0 0 48 48" fill="none" xmlns="http://www.w3.org/2000/svg">
<path d="M0 24C0 10.7452 10.7452 0 24 0C37.2548 0 48 10.7452 48 24C48 37.2548 37.2548 48 24 48C10.7452 48 0 37.2548 0 24Z" fill="#014C48"/>
<path d="M20.2264 30V29.096V28.624C20.2264 28.032 20.3357 27.52 20.5544 27.088C20.7784 26.656 21.0717 26.28 21.4344 25.96C21.8024 25.6347 22.2024 25.344 22.6344 25.088C23.0717 24.832 23.5064 24.5867 23.9384 24.352C24.3757 24.112 24.7757 23.864 25.1384 23.608C25.501 23.3467 25.7917 23.0533 26.0104 22.728C26.2344 22.3973 26.3464 22.008 26.3464 21.56C26.3464 20.9733 26.1384 20.496 25.7224 20.128C25.3117 19.76 24.7544 19.576 24.0504 19.576C23.293 19.576 22.685 19.7893 22.2264 20.216C21.7677 20.6427 21.509 21.2107 21.4504 21.92H19.9784C19.9944 21.2533 20.1597 20.6453 20.4744 20.096C20.789 19.5413 21.2504 19.0987 21.8584 18.768C22.4664 18.4373 23.2157 18.272 24.1064 18.272C24.8797 18.272 25.5517 18.4107 26.1224 18.688C26.693 18.96 27.133 19.344 27.4424 19.84C27.757 20.3307 27.9144 20.904 27.9144 21.56C27.9144 22.1573 27.805 22.6693 27.5864 23.096C27.3677 23.5227 27.077 23.8933 26.7144 24.208C26.357 24.5173 25.965 24.7947 25.5384 25.04C25.1117 25.2853 24.6824 25.5227 24.2504 25.752C23.8184 25.976 23.4237 26.2133 23.0664 26.464C22.709 26.7093 22.421 26.992 22.2024 27.312C21.9837 27.632 21.8744 28.0133 21.8744 28.456V28.688H27.9784V30H20.2264Z" fill="white"/>
</svg>
