<svg width="48" height="48" viewBox="0 0 48 48" fill="none" xmlns="http://www.w3.org/2000/svg">
<path d="M0 24C0 10.7452 10.7452 0 24 0C37.2548 0 48 10.7452 48 24C48 37.2548 37.2548 48 24 48C10.7452 48 0 37.2548 0 24Z" fill="#014C48"/>
<path d="M19.8809 21.8C19.8809 21.0533 20.0623 20.4187 20.4249 19.896C20.7876 19.368 21.2703 18.9653 21.8729 18.688C22.4809 18.4107 23.1503 18.272 23.8809 18.272C24.6809 18.272 25.3876 18.3893 26.0009 18.624C26.6143 18.8533 27.0943 19.1893 27.4409 19.632C27.7876 20.0747 27.9609 20.616 27.9609 21.256C27.9609 21.8267 27.7796 22.344 27.4169 22.808C27.0543 23.2667 26.4996 23.6267 25.7529 23.888C26.2596 24.0267 26.7023 24.2293 27.0809 24.496C27.4596 24.7627 27.7529 25.0907 27.9609 25.48C28.1689 25.864 28.2729 26.3067 28.2729 26.808C28.2729 27.336 28.1609 27.8107 27.9369 28.232C27.7183 28.648 27.4089 29.0027 27.0089 29.296C26.6089 29.584 26.1369 29.8053 25.5929 29.96C25.0489 30.1093 24.4569 30.1813 23.8169 30.176C23.0223 30.1707 22.3209 30.024 21.7129 29.736C21.1103 29.448 20.6356 29.0453 20.2889 28.528C19.9423 28.0053 19.7556 27.3867 19.7289 26.672H21.2089C21.3209 27.392 21.6143 27.944 22.0889 28.328C22.5636 28.712 23.1583 28.904 23.8729 28.904C24.4383 28.904 24.9316 28.816 25.3529 28.64C25.7743 28.4587 26.0996 28.2107 26.3289 27.896C26.5583 27.5813 26.6729 27.2133 26.6729 26.792C26.6729 26.328 26.5449 25.936 26.2889 25.616C26.0329 25.296 25.6836 25.0533 25.2409 24.888C24.7983 24.7173 24.3049 24.6293 23.7609 24.624L22.7209 24.6V23.344L23.7129 23.32C24.2196 23.3093 24.6729 23.2133 25.0729 23.032C25.4729 22.8453 25.7876 22.6027 26.0169 22.304C26.2516 22 26.3689 21.6667 26.3689 21.304C26.3689 20.984 26.2703 20.688 26.0729 20.416C25.8756 20.1387 25.5903 19.9173 25.2169 19.752C24.8489 19.5867 24.4009 19.504 23.8729 19.504C23.4569 19.504 23.0596 19.5867 22.6809 19.752C22.3023 19.912 21.9903 20.16 21.7449 20.496C21.4996 20.832 21.3689 21.2667 21.3529 21.8H19.8809Z" fill="white"/>
</svg>
